<svg t="1558167087647" class="icon" style="" viewBox="0 0 1024 1024" version="1.1" xmlns="http://www.w3.org/2000/svg" p-id="2107" xmlns:xlink="http://www.w3.org/1999/xlink" width="200" height="200"><defs><style type="text/css"></style></defs><path d="M814.656 420.352c-37.632 0-72.384 10.688-102.848 28.096A473.216 473.216 0 0 1 621.248 128H704a32 32 0 0 0 0-64H320a32 32 0 0 0 0 64h145.92c-73.728 52.736-165.504 139.008-198.08 258.048C118.4 396.608 0 519.936 0 672a288 288 0 1 0 576 0c0-143.104-104.704-260.928-241.536-283.264 40.896-122.304 158.976-205.952 221.184-242.56a530.56 530.56 0 0 0 105.856 341.76 207.808 207.808 0 0 0-56.128 141.696 209.28 209.28 0 1 0 209.28-209.28zM512 672C512 795.52 411.52 896 288 896S64 795.52 64 672 164.48 448 288 448 512 548.48 512 672z m302.656 102.912c-80.128 0-145.344-65.216-145.344-145.344s65.216-145.28 145.344-145.28S960 549.504 960 629.632s-65.216 145.28-145.344 145.28z" p-id="2108" fill="#ffff33"></path><path d="M271.552 524.544c-0.064 0-0.064 0 0 0a28.416 28.416 0 0 0-6.4 1.664 119.808 119.808 0 0 0-64.96 43.52 116.224 116.224 0 0 0-22.848 50.304h0.128v0.128c-1.472 14.72 8.512 27.904 22.208 29.248 12.8 1.28 24.384-8.128 27.072-21.376 1.024-6.08 4.992-17.088 13.248-28.096 9.856-12.928 23.616-22.272 42.688-26.624a25.408 25.408 0 0 0 19.584-24c0-13.888-12.032-25.024-26.88-25.024-1.28 0-2.56 0.064-3.84 0.256z" p-id="2109" fill="#ffff33"></path></svg>
