<?xml version="1.0" standalone="no"?><!DOCTYPE svg PUBLIC "-//W3C//DTD SVG 1.1//EN" "http://www.w3.org/Graphics/SVG/1.1/DTD/svg11.dtd"><svg t="1558167214217" class="icon" style="" viewBox="0 0 1024 1024" version="1.1" xmlns="http://www.w3.org/2000/svg" p-id="3870" xmlns:xlink="http://www.w3.org/1999/xlink" width="200" height="200"><defs><style type="text/css"></style></defs><path d="M953.024 71.168c-11.072-11.008-28.864-11.008-39.936 0-0.448 0.448-0.832 1.088-1.28 1.6l-0.192-0.192-140.864 140.928 0.064 0.064c-42.176-32.896-93.12-49.408-144-49.408-59.968 0-120 22.848-165.696 68.608C416.128 277.696 393.344 336.256 392.448 395.136c-58.816 0.832-117.44 23.68-162.368 68.544-84.608 84.544-90.944 217.664-19.264 309.632l-139.008 139.008 0.064 0.064c-0.192 0.192-0.448 0.32-0.64 0.512-10.944 11.072-10.944 28.8 0 39.808s28.8 11.008 39.808 0c0.192-0.192 0.32-0.448 0.512-0.64l0.064 0.064 138.816-138.88c42.56 33.664 93.952 50.624 145.408 50.624 59.968 0 119.936-22.848 165.696-68.736 44.864-44.864 67.648-103.424 68.48-162.24 58.88-0.896 117.504-23.68 162.432-68.608 66.816-66.816 84.8-163.84 54.144-246.976l-0.128 0c-1.344-3.264-3.328-6.336-6.016-9.024-11.008-10.944-28.8-10.944-39.808 0-7.808 7.872-9.92 19.2-6.592 29.056l-0.128 0c22.912 63.104 9.28 136.576-41.28 187.072C719.104 558.08 674.432 576.64 626.816 576.64c-47.552 0-92.352-18.56-125.952-52.16-69.44-69.44-69.44-182.4 0-251.968 33.6-33.6 78.4-52.096 125.952-52.096 47.616 0 92.288 18.496 126.016 52.096 6.528 6.592 12.48 13.504 17.728 20.8l22.784-22.848c0.128-0.128 0.256-0.128 0.32-0.256 0.128-0.064 0.192-0.192 0.32-0.32l16.512-16.512 0 0 140.864-140.928-0.128-0.128c0.64-0.448 1.216-0.832 1.728-1.344C963.904 99.968 963.904 82.112 953.024 71.168zM573.888 626.88c0.704 46.464-16.64 93.12-52.032 128.512-33.664 33.664-78.4 52.224-125.952 52.224-47.616 0-92.352-18.56-126.016-52.224-69.44-69.504-69.44-182.4 0-251.904 33.664-33.664 78.4-52.16 126.016-52.16 0.896 0 1.728 0 2.56 0.064C408 492.736 428.8 532.032 461.12 564.224 493.312 596.544 532.544 617.344 573.888 626.88z" p-id="3871" fill="#1296db"></path></svg>